<svg width="190" height="64" viewBox="0 0 190 64" fill="none" xmlns="http://www.w3.org/2000/svg">
<g clip-path="url(#clip0_181_329)">
<path d="M174.87 8.3763e-05H15.139C14.5567 8.3763e-05 13.9815 8.37631e-05 13.4008 0.00325043C12.9147 0.0064171 12.4324 0.0156163 11.9417 0.0233588C10.8755 0.03587 9.81184 0.129405 8.75993 0.30315C7.7095 0.480677 6.69197 0.815367 5.74176 1.2959C4.79271 1.7805 3.92554 2.41018 3.1717 3.16211C2.4139 3.91193 1.78222 4.77861 1.30095 5.72884C0.818341 6.67717 0.483702 7.6934 0.308585 8.74243C0.131803 9.79013 0.0366751 10.8499 0.0240548 11.9123C0.00932026 12.3977 0.00776424 12.8848 0 13.3703V49.9679C0.00776424 50.4595 0.00932026 50.9358 0.0240548 51.4275C0.036679 52.4898 0.131807 53.5496 0.308585 54.5972C0.483218 55.6469 0.817878 56.6637 1.30095 57.6124C1.782 58.5595 2.41377 59.4227 3.1717 60.1683C3.92268 60.9236 4.79041 61.5537 5.74176 62.0346C6.69196 62.5164 7.70938 62.8531 8.75993 63.0334C9.81202 63.2057 10.8756 63.2993 11.9417 63.3133C12.4324 63.3241 12.9147 63.3303 13.4008 63.3303C13.9815 63.3334 14.5568 63.3334 15.139 63.3334H174.87C175.44 63.3334 176.02 63.3334 176.591 63.3303C177.075 63.3303 177.571 63.3241 178.055 63.3133C179.119 63.3001 180.18 63.2065 181.23 63.0334C182.284 62.8518 183.305 62.5153 184.26 62.0346C185.21 61.5534 186.077 60.9234 186.828 60.1683C187.584 59.4198 188.217 58.5572 188.704 57.6124C189.183 56.663 189.515 55.6462 189.687 54.5972C189.864 53.5494 189.962 52.4899 189.981 51.4275C189.988 50.9358 189.988 50.4595 189.988 49.9679C190 49.3926 190 48.8206 190 48.236V15.099C190 14.5191 190 13.9439 189.988 13.3703C189.988 12.8848 189.988 12.3977 189.981 11.9122C189.962 10.8498 189.864 9.79021 189.687 8.74236C189.514 7.69395 189.183 6.6778 188.704 5.72877C187.724 3.82414 186.169 2.27379 184.26 1.29576C183.305 0.816399 182.284 0.481798 181.23 0.303007C180.18 0.128497 179.119 0.0349294 178.055 0.0231371C177.571 0.0154104 177.075 0.0061321 176.591 0.0030446C176.02 -0.00012207 175.44 -0.00012207 174.87 -0.00012207V8.3763e-05Z" fill="#A6A6A6"/>
<path d="M13.4085 61.9479C12.9248 61.9479 12.4527 61.9417 11.9727 61.9309C10.9784 61.918 9.98646 61.8317 9.00495 61.6727C8.08974 61.5155 7.20315 61.2231 6.37441 60.8052C5.55328 60.3907 4.80434 59.8472 4.15629 59.1956C3.49885 58.5516 2.95151 57.8047 2.53594 56.9845C2.1158 56.1589 1.82504 55.274 1.67378 54.3606C1.51044 53.3791 1.42206 52.3866 1.40941 51.3918C1.39935 51.0579 1.38617 49.9461 1.38617 49.9461V13.3702C1.38617 13.3702 1.40021 12.2754 1.40949 11.9538C1.4216 10.9606 1.50946 9.96966 1.67232 8.9897C1.82385 8.07377 2.11484 7.18631 2.53521 6.35804C2.94925 5.53837 3.49356 4.79091 4.14703 4.14462C4.79977 3.49219 5.55111 2.94592 6.37364 2.52571C7.20046 2.10911 8.08538 1.81879 8.99874 1.66447C9.98348 1.50387 10.9789 1.41704 11.9766 1.40471L13.4093 1.38538H176.583L178.033 1.40548C179.021 1.4172 180.008 1.50326 180.984 1.66292C181.906 1.81917 182.8 2.11152 183.637 2.53035C185.284 3.37719 186.625 4.71697 187.471 6.3619C187.885 7.18446 188.171 8.06468 188.321 8.97269C188.486 9.9607 188.578 10.9594 188.597 11.9608C188.601 12.4092 188.601 12.8908 188.601 13.3702C188.614 13.9639 188.614 14.5291 188.614 15.0988V48.2359C188.614 48.8111 188.614 49.3724 188.601 49.9383C188.601 50.4532 188.601 50.9249 188.595 51.4103C188.577 52.3939 188.486 53.3747 188.324 54.345C188.176 55.265 187.886 56.1569 187.466 56.9892C187.048 57.8005 186.504 58.541 185.854 59.1832C185.205 59.8384 184.455 60.385 183.632 60.8022C182.798 61.2233 181.905 61.5168 180.984 61.6727C180.002 61.8326 179.01 61.9189 178.016 61.9309C177.551 61.9417 177.064 61.9479 176.591 61.9479L174.87 61.951L13.4085 61.9479Z" fill="black"/>
<path d="M39.3275 32.1427C39.3446 30.8212 39.6966 29.5254 40.3508 28.376C41.005 27.2266 41.9402 26.2608 43.0692 25.5686C42.352 24.5471 41.4057 23.7065 40.3057 23.1134C39.2056 22.5204 37.9821 22.1913 36.7321 22.1523C34.0659 21.8732 31.4811 23.7433 30.1224 23.7433C28.7374 23.7433 26.6455 22.18 24.3929 22.2262C22.9358 22.2732 21.5158 22.6957 20.2712 23.4526C19.0265 24.2095 17.9998 25.2751 17.2909 26.5453C14.2201 31.847 16.5106 39.6387 19.4522 43.9241C20.9239 46.0226 22.6439 48.3667 24.8945 48.2835C27.0968 48.1924 27.9194 46.8831 30.5778 46.8831C33.2115 46.8831 33.9832 48.2835 36.2795 48.2307C38.6427 48.1924 40.1316 46.1229 41.5517 44.0045C42.6091 42.5093 43.4228 40.8567 43.9626 39.1081C42.5897 38.529 41.418 37.5597 40.5938 36.3211C39.7695 35.0824 39.3291 33.6293 39.3275 32.1427Z" fill="white"/>
<path d="M34.9903 19.3339C36.2788 17.7914 36.9136 15.8088 36.7599 13.8071C34.7913 14.0133 32.9729 14.9515 31.667 16.4348C31.0285 17.1595 30.5394 18.0025 30.2278 18.9157C29.9162 19.8289 29.7882 20.7945 29.851 21.757C30.8357 21.7672 31.8098 21.5543 32.7 21.1346C33.5902 20.7149 34.3733 20.0992 34.9903 19.3339Z" fill="white"/>
<path d="M67.1666 42.9711H59.651L57.8462 48.2855H54.6629L61.7815 28.6237H65.0889L72.2075 48.2855H68.9699L67.1666 42.9711ZM60.4294 40.5188H66.3868L63.45 31.894H63.3678L60.4294 40.5188Z" fill="white"/>
<path d="M87.5814 41.1187C87.5814 45.5733 85.1904 48.4354 81.5822 48.4354C80.6682 48.4831 79.7592 48.2731 78.9593 47.8296C78.1594 47.386 77.5009 46.7268 77.0592 45.9274H76.9909V53.0277H74.0402V33.9504H76.8964V36.3346H76.9507C77.4127 35.5391 78.0823 34.8833 78.8883 34.437C79.6943 33.9908 80.6065 33.7707 81.5279 33.8004C85.1764 33.8004 87.5814 36.6764 87.5814 41.1187ZM84.5484 41.1187C84.5484 38.2164 83.0444 36.3084 80.7496 36.3084C78.495 36.3084 76.9786 38.2566 76.9786 41.1187C76.9786 44.007 78.495 45.9413 80.7496 45.9413C83.0444 45.9413 84.5484 44.0472 84.5484 41.1187Z" fill="white"/>
<path d="M103.403 41.1188C103.403 45.5734 101.012 48.4355 97.4042 48.4355C96.4902 48.4832 95.5812 48.2732 94.7813 47.8297C93.9813 47.3861 93.3229 46.7269 92.8812 45.9275H92.8129V53.0278H89.8622V33.9505H92.7183V36.3347H92.7726C93.2346 35.5392 93.9042 34.8834 94.7102 34.4371C95.5162 33.9909 96.4284 33.7709 97.3499 33.8005C100.998 33.8005 103.403 36.6765 103.403 41.1188ZM100.37 41.1188C100.37 38.2165 98.8663 36.3085 96.5715 36.3085C94.317 36.3085 92.8005 38.2567 92.8005 41.1188C92.8005 44.0071 94.317 45.9414 96.5715 45.9414C98.8664 45.9414 100.37 44.0473 100.37 41.1188H100.37Z" fill="white"/>
<path d="M113.86 42.8072C114.079 44.757 115.978 46.0372 118.574 46.0372C121.061 46.0372 122.851 44.7569 122.851 42.9988C122.851 41.4727 121.771 40.5589 119.216 39.9327L116.661 39.3188C113.04 38.4467 111.359 36.7583 111.359 34.0184C111.359 30.6259 114.324 28.2958 118.534 28.2958C122.7 28.2958 125.556 30.6259 125.652 34.0184H122.674C122.495 32.0562 120.869 30.8718 118.492 30.8718C116.115 30.8718 114.488 32.0701 114.488 33.8143C114.488 35.2043 115.527 36.0223 118.069 36.6484L120.241 37.1803C124.286 38.1344 125.967 39.7548 125.967 42.6308C125.967 46.3092 123.029 48.6131 118.355 48.6131C113.983 48.6131 111.031 46.3633 110.84 42.807L113.86 42.8072Z" fill="white"/>
<path d="M132.335 30.558V33.9504H135.069V36.2806H132.335V44.1833C132.335 45.411 132.883 45.9831 134.084 45.9831C134.409 45.9775 134.733 45.9547 135.055 45.915V48.2313C134.515 48.3319 133.966 48.3775 133.416 48.3673C130.506 48.3673 129.371 47.2773 129.371 44.4971V36.2806H127.28V33.9504H129.371V30.558H132.335Z" fill="white"/>
<path d="M136.652 41.1187C136.652 36.6084 139.316 33.7742 143.47 33.7742C147.638 33.7742 150.289 36.6083 150.289 41.1187C150.289 45.6414 147.652 48.4633 143.47 48.4633C139.29 48.4633 136.652 45.6414 136.652 41.1187ZM147.283 41.1187C147.283 38.0247 145.861 36.1986 143.47 36.1986C141.079 36.1986 139.659 38.0387 139.659 41.1187C139.659 44.2251 141.079 46.0373 143.47 46.0373C145.861 46.0373 147.283 44.2251 147.283 41.1187H147.283Z" fill="white"/>
<path d="M152.722 33.9505H155.536V36.3904H155.605C155.795 35.6284 156.243 34.9549 156.872 34.4833C157.502 34.0116 158.275 33.7705 159.062 33.8005C159.402 33.7993 159.742 33.8361 160.073 33.9103V36.6625C159.644 36.5317 159.196 36.4717 158.748 36.4847C158.319 36.4674 157.892 36.5427 157.495 36.7057C157.098 36.8686 156.742 37.1151 156.449 37.4285C156.157 37.7418 155.937 38.1144 155.803 38.5208C155.669 38.9272 155.624 39.3577 155.673 39.7828V48.2855H152.722L152.722 33.9505Z" fill="white"/>
<path d="M173.678 44.0751C173.281 46.6774 170.74 48.4633 167.488 48.4633C163.306 48.4633 160.711 45.6693 160.711 41.1868C160.711 36.6904 163.32 33.7742 167.364 33.7742C171.341 33.7742 173.842 36.4986 173.842 40.8451V41.8532H163.689V42.031C163.642 42.5586 163.709 43.09 163.884 43.5901C164.059 44.0902 164.338 44.5474 164.704 44.9315C165.07 45.3155 165.513 45.6176 166.005 45.8175C166.497 46.0175 167.026 46.1109 167.556 46.0914C168.254 46.1565 168.953 45.9955 169.552 45.6322C170.15 45.2689 170.614 44.7228 170.876 44.0751L173.678 44.0751ZM163.703 39.7967H170.89C170.917 39.3224 170.844 38.8477 170.678 38.4024C170.512 37.9572 170.255 37.551 169.924 37.2093C169.593 36.8677 169.195 36.598 168.754 36.4172C168.314 36.2363 167.84 36.1482 167.364 36.1584C166.884 36.1556 166.407 36.2477 165.963 36.4293C165.518 36.611 165.114 36.8787 164.773 37.2169C164.433 37.5552 164.163 37.9573 163.98 38.4001C163.796 38.8429 163.702 39.3176 163.703 39.7967V39.7967Z" fill="white"/>
<path d="M60.0596 13.8242C60.6782 13.7799 61.299 13.8731 61.8771 14.0971C62.4552 14.321 62.9763 14.6701 63.4028 15.1192C63.8292 15.5682 64.1504 16.1061 64.3432 16.6939C64.536 17.2818 64.5955 17.905 64.5175 18.5185C64.5175 21.5368 62.8816 23.2717 60.0596 23.2717H56.6375V13.8242H60.0596ZM58.109 21.9356H59.8952C60.3373 21.962 60.7797 21.8897 61.1902 21.724C61.6007 21.5584 61.969 21.3036 62.2682 20.9781C62.5675 20.6526 62.7903 20.2647 62.9203 19.8425C63.0502 19.4204 63.0842 18.9747 63.0196 18.5378C63.0795 18.1026 63.0421 17.6597 62.9101 17.2406C62.7782 16.8216 62.5549 16.4368 62.2563 16.1139C61.9577 15.791 61.5911 15.538 61.1829 15.3729C60.7748 15.2079 60.335 15.1349 59.8952 15.1593H58.109V21.9356Z" fill="white"/>
<path d="M66.1797 19.7037C66.1347 19.2351 66.1885 18.7624 66.3375 18.3158C66.4865 17.8692 66.7274 17.4585 67.0449 17.1102C67.3624 16.7619 67.7493 16.4836 68.181 16.2932C68.6126 16.1028 69.0794 16.0044 69.5514 16.0044C70.0234 16.0044 70.4902 16.1028 70.9218 16.2932C71.3535 16.4836 71.7404 16.7619 72.0579 17.1102C72.3753 17.4585 72.6163 17.8692 72.7653 18.3158C72.9143 18.7624 72.968 19.2351 72.9231 19.7037C72.9689 20.1727 72.9158 20.6461 72.7672 21.0934C72.6186 21.5407 72.3778 21.9521 72.0602 22.3011C71.7427 22.6501 71.3554 22.929 70.9234 23.1198C70.4913 23.3107 70.0239 23.4092 69.5514 23.4092C69.0788 23.4092 68.6115 23.3107 68.1794 23.1198C67.7473 22.929 67.3601 22.6501 67.0425 22.3011C66.725 21.9521 66.4842 21.5407 66.3356 21.0934C66.187 20.6461 66.1339 20.1727 66.1797 19.7037ZM71.4718 19.7037C71.4718 18.1582 70.7755 17.2545 69.5537 17.2545C68.3272 17.2545 67.6373 18.1582 67.6373 19.7037C67.6373 21.2615 68.3273 22.1583 69.5537 22.1583C70.7756 22.1583 71.4718 21.2553 71.4718 19.7037H71.4718Z" fill="white"/>
<path d="M81.8869 23.2715H80.4232L78.9455 18.0205H78.8338L77.3624 23.2715H75.9126L73.9418 16.1418H75.373L76.6537 21.5822H76.7592L78.2291 16.1418H79.5828L81.0527 21.5822H81.1643L82.4389 16.1418H83.8499L81.8869 23.2715Z" fill="white"/>
<path d="M85.5075 16.1418H86.8658V17.2744H86.9712C87.1501 16.8676 87.4518 16.5266 87.8342 16.299C88.2167 16.0713 88.6608 15.9682 89.1048 16.0042C89.4527 15.9781 89.802 16.0304 90.1268 16.1573C90.4517 16.2841 90.7438 16.4822 90.9814 16.7368C91.2191 16.9915 91.3963 17.2962 91.4998 17.6284C91.6033 17.9607 91.6305 18.3118 91.5795 18.656V23.2714H90.1685V19.0093C90.1685 17.8636 89.6692 17.2938 88.6257 17.2938C88.3895 17.2828 88.1537 17.3229 87.9345 17.4113C87.7153 17.4997 87.5178 17.6343 87.3557 17.8059C87.1935 17.9775 87.0705 18.1821 86.995 18.4055C86.9196 18.629 86.8935 18.8661 86.9185 19.1005V23.2715H85.5075L85.5075 16.1418Z" fill="white"/>
<path d="M93.8278 13.3586H95.2388V23.2715H93.8278V13.3586Z" fill="white"/>
<path d="M97.2003 19.7035C97.1554 19.235 97.2092 18.7622 97.3582 18.3156C97.5072 17.869 97.7482 17.4583 98.0657 17.11C98.3832 16.7617 98.7702 16.4834 99.2019 16.293C99.6335 16.1025 100.1 16.0042 100.572 16.0042C101.044 16.0042 101.511 16.1025 101.943 16.293C102.375 16.4834 102.762 16.7617 103.079 17.11C103.397 17.4583 103.638 17.869 103.787 18.3156C103.936 18.7622 103.989 19.235 103.944 19.7035C103.99 20.1726 103.937 20.646 103.788 21.0933C103.64 21.5406 103.399 21.952 103.081 22.301C102.764 22.65 102.376 22.9288 101.944 23.1197C101.512 23.3105 101.045 23.4091 100.572 23.4091C100.1 23.4091 99.6325 23.3105 99.2004 23.1197C98.7683 22.9288 98.381 22.65 98.0634 22.301C97.7459 21.952 97.505 21.5406 97.3564 21.0933C97.2077 20.646 97.1546 20.1726 97.2003 19.7035ZM102.492 19.7035C102.492 18.1581 101.796 17.2543 100.574 17.2543C99.3478 17.2543 98.6579 18.1581 98.6579 19.7036C98.6579 21.2614 99.3479 22.1582 100.574 22.1582C101.796 22.1582 102.492 21.2552 102.492 19.7035H102.492Z" fill="white"/>
<path d="M105.43 21.2552C105.43 19.9719 106.388 19.232 108.089 19.1269L110.026 19.0155V18.4001C110.026 17.6471 109.527 17.2219 108.562 17.2219C107.774 17.2219 107.229 17.5103 107.072 18.0144H105.706C105.85 16.7897 107.005 16.0043 108.627 16.0043C110.42 16.0043 111.431 16.8941 111.431 18.4001V23.2715H110.072V22.2696H109.961C109.734 22.629 109.416 22.922 109.039 23.1186C108.661 23.3153 108.238 23.4086 107.813 23.389C107.513 23.4201 107.21 23.3882 106.923 23.2952C106.636 23.2023 106.371 23.0504 106.147 22.8494C105.922 22.6484 105.742 22.4026 105.619 22.1281C105.496 21.8535 105.431 21.5562 105.43 21.2552ZM110.026 20.646V20.05L108.28 20.1613C107.295 20.227 106.849 20.561 106.849 21.1895C106.849 21.8312 107.407 22.2046 108.174 22.2046C108.399 22.2273 108.627 22.2047 108.843 22.138C109.058 22.0714 109.259 21.9621 109.431 21.8167C109.604 21.6713 109.746 21.4927 109.848 21.2916C109.95 21.0905 110.011 20.8709 110.026 20.646Z" fill="white"/>
<path d="M113.285 19.7036C113.285 17.4508 114.446 16.0236 116.253 16.0236C116.7 16.0031 117.143 16.1098 117.531 16.3313C117.92 16.5528 118.237 16.8799 118.445 17.2744H118.551V13.3586H119.962V23.2715H118.61V22.1451H118.498C118.273 22.5369 117.945 22.86 117.549 23.0792C117.154 23.2985 116.705 23.4056 116.253 23.389C114.434 23.3891 113.285 21.9619 113.285 19.7036ZM114.743 19.7036C114.743 21.2158 115.457 22.1258 116.653 22.1258C117.842 22.1258 118.577 21.2027 118.577 19.7098C118.577 18.2239 117.834 17.2876 116.653 17.2876C115.465 17.2876 114.743 18.2038 114.743 19.7036H114.743Z" fill="white"/>
<path d="M125.8 19.7037C125.755 19.2351 125.808 18.7624 125.957 18.3158C126.106 17.8692 126.347 17.4585 126.665 17.1102C126.982 16.7619 127.369 16.4836 127.801 16.2932C128.233 16.1028 128.699 16.0044 129.171 16.0044C129.643 16.0044 130.11 16.1028 130.542 16.2932C130.973 16.4836 131.36 16.7619 131.678 17.1102C131.995 17.4585 132.236 17.8692 132.385 18.3158C132.534 18.7624 132.588 19.2351 132.543 19.7037C132.589 20.1727 132.536 20.6461 132.387 21.0934C132.239 21.5407 131.998 21.9521 131.68 22.3011C131.363 22.6501 130.975 22.929 130.543 23.1198C130.111 23.3107 129.644 23.4092 129.171 23.4092C128.699 23.4092 128.231 23.3107 127.799 23.1198C127.367 22.929 126.98 22.6501 126.663 22.3011C126.345 21.9521 126.104 21.5407 125.956 21.0934C125.807 20.6461 125.754 20.1727 125.8 19.7037ZM131.092 19.7037C131.092 18.1582 130.396 17.2545 129.174 17.2545C127.947 17.2545 127.257 18.1582 127.257 19.7037C127.257 21.2615 127.947 22.1583 129.174 22.1583C130.396 22.1583 131.092 21.2553 131.092 19.7037Z" fill="white"/>
<path d="M134.436 16.1418H135.795V17.2744H135.9C136.079 16.8676 136.381 16.5266 136.763 16.299C137.146 16.0713 137.59 15.9682 138.034 16.0042C138.382 15.9781 138.731 16.0304 139.056 16.1573C139.381 16.2841 139.673 16.4822 139.91 16.7368C140.148 16.9915 140.325 17.2962 140.429 17.6284C140.532 17.9607 140.559 18.3118 140.508 18.656V23.2714H139.097V19.0093C139.097 17.8636 138.598 17.2938 137.555 17.2938C137.318 17.2828 137.083 17.3229 136.863 17.4113C136.644 17.4997 136.447 17.6343 136.285 17.8059C136.122 17.9775 135.999 18.1821 135.924 18.4055C135.848 18.629 135.822 18.8661 135.847 19.1005V23.2715H134.436V16.1418Z" fill="white"/>
<path d="M148.481 14.3668V16.1744H150.03V17.3595H148.481V21.0256C148.481 21.7725 148.79 22.0995 149.492 22.0995C149.672 22.0989 149.852 22.0881 150.03 22.067V23.239C149.777 23.2843 149.52 23.3083 149.263 23.3109C147.694 23.3109 147.069 22.7605 147.069 21.3859V17.3595H145.934V16.1743H147.069V14.3668H148.481Z" fill="white"/>
<path d="M151.958 13.3586H153.356V17.2876H153.468C153.656 16.877 153.965 16.5341 154.356 16.3055C154.746 16.077 155.197 15.9739 155.648 16.0104C155.994 15.9916 156.34 16.0493 156.661 16.1792C156.982 16.3091 157.271 16.508 157.506 16.7619C157.741 17.0158 157.917 17.3183 158.022 17.6478C158.126 17.9774 158.156 18.3258 158.11 18.6684V23.2715H156.698V19.0155C156.698 17.8767 156.166 17.3 155.169 17.3C154.926 17.2801 154.683 17.3134 154.454 17.3974C154.226 17.4814 154.019 17.6141 153.847 17.7863C153.676 17.9584 153.544 18.1659 153.462 18.3941C153.379 18.6223 153.347 18.8658 153.369 19.1075V23.2715H151.958L151.958 13.3586Z" fill="white"/>
<path d="M166.338 21.3465C166.146 21.9981 165.731 22.5617 165.164 22.9388C164.598 23.3159 163.917 23.4823 163.24 23.4091C162.769 23.4215 162.3 23.3316 161.868 23.1455C161.435 22.9594 161.048 22.6816 160.734 22.3315C160.42 21.9814 160.186 21.5672 160.048 21.1178C159.91 20.6685 159.873 20.1946 159.937 19.7291C159.874 19.2622 159.913 18.7873 160.05 18.3366C160.187 17.8859 160.42 17.4698 160.733 17.1166C161.045 16.7634 161.43 16.4813 161.862 16.2894C162.293 16.0975 162.761 16.0003 163.233 16.0043C165.223 16.0043 166.423 17.3596 166.423 19.5984V20.0894H161.374V20.1683C161.352 20.4299 161.385 20.6933 161.471 20.9414C161.557 21.1896 161.694 21.4172 161.873 21.6095C162.053 21.8018 162.27 21.9546 162.512 22.0582C162.754 22.1617 163.015 22.2137 163.278 22.2108C163.616 22.2512 163.958 22.1906 164.261 22.0367C164.564 21.8827 164.814 21.6425 164.979 21.3464L166.338 21.3465ZM161.374 19.0488H164.986C165.003 18.8095 164.971 18.5691 164.89 18.3432C164.809 18.1172 164.681 17.9106 164.516 17.7367C164.35 17.5627 164.15 17.4253 163.927 17.3332C163.705 17.2411 163.466 17.1963 163.226 17.2018C162.982 17.1988 162.739 17.2445 162.513 17.3362C162.287 17.4279 162.082 17.5639 161.909 17.736C161.737 17.9082 161.601 18.113 161.509 18.3384C161.417 18.5639 161.371 18.8054 161.374 19.0488H161.374Z" fill="white"/>
</g>
<defs>
<clipPath id="clip0_181_329">
<rect width="190" height="63.3333" fill="white"/>
</clipPath>
</defs>
</svg>
