<svg width="190" height="57" viewBox="0 0 190 57" fill="none" xmlns="http://www.w3.org/2000/svg">
<g clip-path="url(#clip0_181_328)">
<path d="M182.525 0H7.02018C3.14304 0 0 3.14304 0 7.02018V49.1412C0 53.0184 3.14304 56.1614 7.02018 56.1614H182.525C186.402 56.1614 189.545 53.0184 189.545 49.1412V7.02018C189.545 3.14304 186.402 0 182.525 0Z" fill="black"/>
<path d="M182.525 1.12323C184.089 1.12323 185.588 1.74451 186.694 2.8504C187.8 3.9563 188.422 5.45621 188.422 7.02018V49.1412C188.422 50.7052 187.8 52.2051 186.694 53.311C185.588 54.4169 184.089 55.0382 182.525 55.0382H7.02018C5.45621 55.0382 3.9563 54.4169 2.8504 53.311C1.74451 52.2051 1.12323 50.7052 1.12323 49.1412V7.02018C1.12323 5.45621 1.74451 3.9563 2.8504 2.8504C3.9563 1.74451 5.45621 1.12323 7.02018 1.12323H182.525ZM182.525 0H7.02018C5.15831 0 3.3727 0.739624 2.05616 2.05616C0.739624 3.3727 0 5.15831 0 7.02018V49.1412C0 51.0031 0.739624 52.7887 2.05616 54.1053C3.3727 55.4218 5.15831 56.1614 7.02018 56.1614H182.525C184.386 56.1614 186.172 55.4218 187.489 54.1053C188.805 52.7887 189.545 51.0031 189.545 49.1412V7.02018C189.545 5.15831 188.805 3.3727 187.489 2.05616C186.172 0.739624 184.386 0 182.525 0Z" fill="#A6A6A6"/>
<path d="M66.5793 14.3773C66.6024 14.8922 66.521 15.4064 66.34 15.889C66.159 16.3716 65.8822 16.8126 65.5263 17.1853C65.1274 17.5971 64.6461 17.9201 64.1138 18.133C63.5815 18.3459 63.0103 18.444 62.4374 18.4209C61.8613 18.4337 61.2887 18.3282 60.7549 18.1109C60.2212 17.8935 59.7378 17.569 59.3345 17.1573C58.5164 16.3204 58.0583 15.1966 58.0583 14.0263C58.0583 12.8559 58.5164 11.7321 59.3345 10.8953C59.96 10.2841 60.7522 9.87136 61.6115 9.70898C62.4709 9.54661 63.359 9.64182 64.1644 9.98265C64.6707 10.1908 65.1223 10.5126 65.4842 10.9233L64.7401 11.6675C64.4612 11.3316 64.1079 11.0653 63.7082 10.8899C63.3085 10.7144 62.8734 10.6345 62.4374 10.6566C61.8871 10.6604 61.346 10.7989 60.8616 11.0601C60.3772 11.3213 59.9641 11.6972 59.6584 12.1549C59.3528 12.6126 59.1639 13.1382 59.1083 13.6857C59.0527 14.2332 59.132 14.7861 59.3394 15.2959C59.5468 15.8057 59.8759 16.2569 60.2979 16.6102C60.72 16.9634 61.2221 17.2079 61.7604 17.3223C62.2988 17.4367 62.857 17.4175 63.3862 17.2663C63.9154 17.1152 64.3995 16.8367 64.7962 16.4552C65.2251 15.985 65.4738 15.3783 65.4982 14.7423H62.4374V13.7314H66.5232C66.5551 13.9453 66.5739 14.161 66.5793 14.3773Z" fill="white" stroke="white" stroke-width="0.265643" stroke-miterlimit="10"/>
<path d="M73.0098 10.8672H69.2189V13.5349H72.6728V14.5458H69.2189V17.2135H73.0098V18.2525H68.1237V9.82825H73.0098V10.8672Z" fill="white" stroke="white" stroke-width="0.265643" stroke-miterlimit="10"/>
<path d="M77.6151 18.2525H76.534V10.8672H74.1752V9.82825H80.03V10.8672H77.6151V18.2525Z" fill="white" stroke="white" stroke-width="0.265643" stroke-miterlimit="10"/>
<path d="M84.1579 18.2525V9.82825H85.239V18.2525H84.1579Z" fill="white" stroke="white" stroke-width="0.265643" stroke-miterlimit="10"/>
<path d="M90.0408 18.2525H88.9597V10.8672H86.6009V9.82825H92.3855V10.8672H90.0408V18.2525Z" fill="white" stroke="white" stroke-width="0.265643" stroke-miterlimit="10"/>
<path d="M103.351 17.1573C102.946 17.5631 102.464 17.8851 101.934 18.1048C101.404 18.3244 100.836 18.4375 100.262 18.4375C99.6884 18.4375 99.1203 18.3244 98.5903 18.1048C98.0603 17.8851 97.5788 17.5631 97.1733 17.1573C96.3795 16.3135 95.9376 15.1987 95.9376 14.0403C95.9376 12.8819 96.3795 11.7671 97.1733 10.9234C97.57 10.5061 98.05 10.1767 98.5821 9.95666C99.1142 9.73657 99.6865 9.63063 100.262 9.6457C100.837 9.6366 101.408 9.74527 101.939 9.965C102.47 10.1847 102.951 10.5109 103.351 10.9234C103.755 11.334 104.072 11.8214 104.284 12.3568C104.497 12.8921 104.599 13.4646 104.587 14.0403C104.605 14.6168 104.505 15.1909 104.292 15.727C104.08 16.2632 103.759 16.75 103.351 17.1573ZM97.9736 16.4553C98.2727 16.7584 98.629 16.999 99.0219 17.1633C99.4147 17.3276 99.8363 17.4121 100.262 17.4121C100.688 17.4121 101.11 17.3276 101.502 17.1633C101.895 16.999 102.252 16.7584 102.551 16.4553C103.157 15.797 103.493 14.935 103.493 14.0403C103.493 13.1457 103.157 12.2837 102.551 11.6254C102.252 11.3223 101.895 11.0816 101.502 10.9174C101.11 10.7531 100.688 10.6685 100.262 10.6685C99.8363 10.6685 99.4147 10.7531 99.0219 10.9174C98.629 11.0816 98.2727 11.3223 97.9736 11.6254C97.3677 12.2837 97.0315 13.1457 97.0315 14.0403C97.0315 14.935 97.3677 15.797 97.9736 16.4553Z" fill="white" stroke="white" stroke-width="0.265643" stroke-miterlimit="10"/>
<path d="M106.117 18.2525V9.82825H107.423L111.523 16.3851V14.7564V9.82825H112.604V18.2525H111.48L107.198 11.3867V13.0014V18.2525H106.117Z" fill="white" stroke="white" stroke-width="0.265643" stroke-miterlimit="10"/>
<path d="M95.671 30.5378C94.488 30.5405 93.3324 30.894 92.3504 31.5536C91.3683 32.2131 90.6039 33.149 90.1538 34.243C89.7036 35.337 89.588 36.5399 89.8215 37.6996C90.055 38.8593 90.6272 39.9237 91.4656 40.7582C92.3041 41.5927 93.3712 42.1598 94.5319 42.3879C95.6927 42.616 96.895 42.4947 97.9869 42.0394C99.0787 41.5842 100.011 40.8154 100.666 39.8302C101.321 38.8451 101.669 37.6879 101.666 36.5049C101.678 35.7157 101.53 34.9323 101.233 34.2014C100.935 33.4704 100.493 32.8067 99.934 32.25C99.3746 31.6932 98.7089 31.2547 97.9765 30.9605C97.2442 30.6664 96.4601 30.5226 95.671 30.5378ZM95.671 40.1273C94.9459 40.178 94.2223 40.0094 93.5944 39.6435C92.9664 39.2775 92.463 38.7311 92.1497 38.0752C91.8364 37.4194 91.7276 36.6844 91.8375 35.966C91.9474 35.2475 92.2709 34.5787 92.766 34.0465C93.261 33.5143 93.9047 33.1434 94.6134 32.9819C95.3221 32.8204 96.063 32.8758 96.7397 33.1409C97.4165 33.4061 97.9978 33.8687 98.4082 34.4686C98.8185 35.0686 99.0389 35.7781 99.0407 36.5049C99.0633 36.9654 98.9934 37.4259 98.8353 37.859C98.6771 38.2921 98.4339 38.6892 98.1198 39.0268C97.8058 39.3644 97.4273 39.6357 97.0067 39.8247C96.5861 40.0137 96.1319 40.1166 95.671 40.1273ZM82.5854 30.5378C81.4024 30.5405 80.2468 30.894 79.2648 31.5536C78.2827 32.2131 77.5183 33.149 77.0682 34.243C76.618 35.337 76.5024 36.5399 76.7359 37.6996C76.9694 38.8593 77.5416 39.9237 78.38 40.7582C79.2185 41.5927 80.2855 42.1598 81.4463 42.3879C82.6071 42.616 83.8094 42.4947 84.9013 42.0394C85.9931 41.5842 86.9255 40.8154 87.5804 39.8302C88.2353 38.8451 88.5834 37.6879 88.5806 36.5049C88.592 35.7157 88.4446 34.9323 88.147 34.2014C87.8494 33.4704 87.4078 32.8067 86.8484 32.25C86.289 31.6932 85.6233 31.2547 84.8909 30.9605C84.1585 30.6664 83.3745 30.5226 82.5854 30.5378ZM82.5854 40.1273C81.8603 40.178 81.1367 40.0094 80.5087 39.6435C79.8808 39.2775 79.3774 38.7311 79.0641 38.0752C78.7508 37.4194 78.642 36.6844 78.7519 35.966C78.8618 35.2475 79.1853 34.5787 79.6804 34.0465C80.1754 33.5143 80.8191 33.1434 81.5278 32.9819C82.2365 32.8204 82.9773 32.8758 83.6541 33.1409C84.3308 33.4061 84.9122 33.8687 85.3225 34.4686C85.7329 35.0686 85.9533 35.7781 85.9551 36.5049C85.9777 36.9654 85.9078 37.4259 85.7497 37.859C85.5915 38.2921 85.3483 38.6892 85.0342 39.0268C84.7201 39.3644 84.3417 39.6357 83.9211 39.8247C83.5005 40.0137 83.0463 40.1166 82.5854 40.1273ZM67.0287 32.377V34.9043H73.0941C72.999 36.0946 72.5042 37.2179 71.6901 38.0915C71.0816 38.7114 70.3498 39.1966 69.542 39.5159C68.7342 39.8351 67.8684 39.9813 67.0006 39.9448C65.2132 39.9448 63.499 39.2347 62.2351 37.9709C60.9712 36.707 60.2612 34.9928 60.2612 33.2054C60.2612 31.418 60.9712 29.7038 62.2351 28.44C63.499 27.1761 65.2132 26.466 67.0006 26.466C68.7141 26.4406 70.3687 27.0913 71.6058 28.2773L73.3889 26.4941C72.5521 25.6665 71.5585 25.0141 70.4664 24.5753C69.3742 24.1365 68.2055 23.9201 67.0287 23.9388C65.7805 23.8902 64.5353 24.0941 63.3678 24.5383C62.2003 24.9824 61.1345 25.6577 60.2342 26.5236C59.3339 27.3896 58.6177 28.4283 58.1285 29.5777C57.6392 30.727 57.3871 31.9633 57.3871 33.2124C57.3871 34.4616 57.6392 35.6979 58.1285 36.8472C58.6177 37.9966 59.3339 39.0353 60.2342 39.9012C61.1345 40.7672 62.2003 41.4425 63.3678 41.8866C64.5353 42.3308 65.7805 42.5347 67.0287 42.4861C68.2297 42.5341 69.4273 42.3274 70.5428 41.8798C71.6583 41.4321 72.6666 40.7535 73.5013 39.8886C74.9757 38.2689 75.7613 36.1387 75.6916 33.9496C75.6966 33.4227 75.6543 32.8964 75.5652 32.377H67.0287ZM130.646 34.3427C130.279 33.2654 129.595 32.3248 128.682 31.6453C127.769 30.9659 126.672 30.5796 125.535 30.5378C124.767 30.5362 124.007 30.6923 123.301 30.9962C122.596 31.3001 121.961 31.7455 121.434 32.3048C120.908 32.864 120.502 33.5253 120.241 34.2478C119.98 34.9702 119.871 35.7384 119.919 36.5049C119.907 37.7866 120.31 39.0377 121.067 40.0715C121.825 41.1053 122.897 41.8662 124.123 42.2406C125.349 42.615 126.663 42.5827 127.869 42.1487C129.075 41.7147 130.108 40.9021 130.814 39.8325L128.778 38.4284C128.475 38.9343 128.044 39.352 127.529 39.6401C127.015 39.9283 126.434 40.0769 125.844 40.0712C125.235 40.0963 124.633 39.9367 124.117 39.6135C123.601 39.2902 123.194 38.8184 122.951 38.2599L130.94 34.9605L130.646 34.3427ZM122.502 36.3364C122.474 35.9003 122.532 35.4629 122.675 35.0498C122.818 34.6367 123.042 34.2562 123.333 33.9306C123.625 33.6051 123.978 33.3409 124.373 33.1537C124.768 32.9665 125.196 32.86 125.633 32.8404C126.085 32.8128 126.536 32.9193 126.928 33.1465C127.32 33.3738 127.637 33.7118 127.837 34.118L122.502 36.3364ZM116.015 42.121H118.641V24.5706H116.015V42.121ZM111.719 31.8716H111.621C111.229 31.4249 110.745 31.0682 110.202 30.8259C109.659 30.5836 109.07 30.4613 108.476 30.4675C106.941 30.542 105.495 31.2039 104.435 32.3161C103.375 33.4283 102.784 34.9056 102.784 36.4417C102.784 37.9779 103.375 39.4551 104.435 40.5674C105.495 41.6796 106.941 42.3415 108.476 42.4159C109.071 42.4278 109.662 42.3082 110.205 42.0655C110.749 41.8228 111.232 41.463 111.621 41.0119H111.719V41.8683C111.719 44.1569 110.498 45.3784 108.532 45.3784C107.875 45.364 107.238 45.1547 106.7 44.7773C106.163 44.3998 105.75 43.8711 105.513 43.2583L103.239 44.199C103.659 45.2552 104.39 46.1589 105.336 46.7906C106.281 47.4224 107.395 47.7525 108.532 47.7372C111.607 47.7372 114.148 45.926 114.148 41.5173V30.8888H111.719V31.8716ZM108.7 40.1273C107.781 40.07 106.917 39.6641 106.286 38.9924C105.655 38.3207 105.303 37.4336 105.303 36.5119C105.303 35.5902 105.655 34.7032 106.286 34.0315C106.917 33.3598 107.781 32.9539 108.7 32.8965C109.15 32.9159 109.591 33.0256 109.998 33.2189C110.404 33.4123 110.767 33.6855 111.066 34.0221C111.365 34.3588 111.592 34.7521 111.736 35.1786C111.88 35.6051 111.936 36.0562 111.902 36.5049C111.94 36.9552 111.887 37.4085 111.745 37.8375C111.603 38.2666 111.375 38.6624 111.076 39.001C110.777 39.3396 110.412 39.614 110.004 39.8076C109.595 40.0012 109.152 40.11 108.7 40.1273ZM142.945 24.5706H136.655V42.121H139.28V35.4659H142.945C143.693 35.5197 144.444 35.4187 145.152 35.1693C145.86 34.9199 146.508 34.5274 147.057 34.0162C147.606 33.5051 148.044 32.8863 148.344 32.1985C148.643 31.5106 148.798 30.7685 148.798 30.0183C148.798 29.268 148.643 28.5259 148.344 27.838C148.044 27.1502 147.606 26.5314 147.057 26.0203C146.508 25.5092 145.86 25.1167 145.152 24.8672C144.444 24.6178 143.693 24.5168 142.945 24.5706ZM142.945 32.9948H139.28V27.0136H143.001C143.396 27.0136 143.786 27.0913 144.151 27.2423C144.515 27.3933 144.847 27.6147 145.126 27.8937C145.405 28.1727 145.626 28.5039 145.777 28.8684C145.928 29.233 146.006 29.6237 146.006 30.0183C146.006 30.4128 145.928 30.8035 145.777 31.1681C145.626 31.5326 145.405 31.8638 145.126 32.1429C144.847 32.4219 144.515 32.6432 144.151 32.7942C143.786 32.9452 143.396 33.0229 143.001 33.0229L142.945 32.9948ZM159.147 30.4816C158.191 30.4226 157.239 30.6452 156.408 31.1219C155.577 31.5985 154.904 32.3082 154.472 33.1633L156.789 34.1321C157.023 33.71 157.374 33.3648 157.8 33.1381C158.226 32.9113 158.709 32.8128 159.19 32.8544C159.523 32.8155 159.861 32.8433 160.183 32.9363C160.505 33.0293 160.806 33.1855 161.067 33.396C161.329 33.6064 161.546 33.8667 161.705 34.1619C161.865 34.457 161.964 34.781 161.998 35.1149V35.2834C161.153 34.8396 160.214 34.6083 159.26 34.6095C156.761 34.6095 154.205 36.0135 154.205 38.5688C154.23 39.112 154.364 39.6446 154.598 40.1351C154.833 40.6256 155.164 41.0639 155.571 41.4241C155.978 41.7843 156.454 42.0589 156.969 42.2317C157.485 42.4045 158.03 42.4719 158.572 42.4299C159.231 42.4664 159.887 42.3269 160.475 42.0259C161.062 41.7249 161.558 41.2732 161.913 40.717H161.998V42.121H164.525V35.3676C164.525 32.2928 162.194 30.5097 159.204 30.5097L159.147 30.4816ZM158.824 40.0992C157.968 40.0992 156.775 39.664 156.775 38.611C156.775 37.2069 158.263 36.7295 159.583 36.7295C160.417 36.709 161.241 36.9126 161.97 37.3192C161.881 38.0817 161.52 38.7864 160.952 39.3027C160.384 39.8191 159.648 40.112 158.881 40.1273L158.824 40.0992ZM173.735 30.8888L170.731 38.4986H170.646L167.53 30.8888H164.721L169.397 41.5313L166.729 47.4423H169.467L176.656 30.8888H173.735ZM150.148 42.121H152.759V24.5706H150.148V42.121Z" fill="white"/>
<path d="M14.6581 10.5864C14.1954 11.1335 13.9594 11.8367 13.9982 12.5521V43.6094C13.9504 44.3259 14.1876 45.0324 14.6581 45.575L14.7564 45.6873L32.1524 28.2913V27.8701L14.7564 10.4882L14.6581 10.5864Z" fill="url(#paint0_linear_181_328)"/>
<path d="M37.9089 34.09L32.1524 28.2913V27.8701L37.9089 22.0714L38.0353 22.1557L44.9291 26.0589C46.8948 27.1681 46.8948 28.9933 44.9291 30.1165L38.0634 34.0197L37.9089 34.09Z" fill="url(#paint1_linear_181_328)"/>
<path d="M38.0774 34.0057L32.1524 28.0807L14.6581 45.575C15.0549 45.9281 15.5627 46.1313 16.0936 46.1492C16.6244 46.1672 17.1448 45.9988 17.5645 45.6733L38.0774 34.0057Z" fill="url(#paint2_linear_181_328)"/>
<path d="M38.0774 22.1556L17.5645 10.5021C17.1475 10.1721 16.6275 9.99958 16.096 10.015C15.5644 10.0304 15.0553 10.2327 14.6581 10.5864L32.1524 28.0807L38.0774 22.1556Z" fill="url(#paint3_linear_181_328)"/>
<path opacity="0.2" d="M37.909 33.8794L17.5645 45.4627C17.1601 45.7679 16.6672 45.933 16.1605 45.933C15.6538 45.933 15.1609 45.7679 14.7564 45.4627L14.6581 45.561L14.7564 45.6733C15.1609 45.9785 15.6538 46.1437 16.1605 46.1437C16.6672 46.1437 17.1601 45.9785 17.5645 45.6733L38.0774 34.0058L37.909 33.8794Z" fill="black"/>
<path opacity="0.12" d="M14.6581 45.3785C14.2071 44.8216 13.9861 44.1134 14.0404 43.3988V43.6094C13.9926 44.326 14.2297 45.0325 14.7002 45.5751L14.7985 45.4768L14.6581 45.3785Z" fill="black"/>
<path opacity="0.12" d="M44.9291 29.9059L37.909 33.8794L38.0353 34.0057L44.9291 30.1025C45.3361 29.9304 45.6891 29.6518 45.951 29.296C46.2129 28.9402 46.374 28.5204 46.4174 28.0807C46.3296 28.4802 46.1492 28.8536 45.8907 29.1706C45.6322 29.4876 45.3028 29.7395 44.9291 29.9059Z" fill="black"/>
<path opacity="0.25" d="M17.5645 10.6988L44.9291 26.2555C45.3028 26.4219 45.6322 26.6738 45.8907 26.9909C46.1492 27.3079 46.3296 27.6812 46.4174 28.0808C46.374 27.6411 46.2129 27.2212 45.951 26.8654C45.6891 26.5096 45.3361 26.231 44.9291 26.059L17.5645 10.5022C15.6129 9.37902 13.9982 10.3057 13.9982 12.5521V12.7627C14.0404 10.5163 15.6129 9.58963 17.5645 10.6988Z" fill="white"/>
</g>
<defs>
<linearGradient id="paint0_linear_181_328" x1="30.6079" y1="12.2292" x2="7.04823" y2="35.7889" gradientUnits="userSpaceOnUse">
<stop stop-color="#00A0FF"/>
<stop offset="0.01" stop-color="#00A1FF"/>
<stop offset="0.26" stop-color="#00BEFF"/>
<stop offset="0.51" stop-color="#00D2FF"/>
<stop offset="0.76" stop-color="#00DFFF"/>
<stop offset="1" stop-color="#00E3FF"/>
</linearGradient>
<linearGradient id="paint1_linear_181_328" x1="47.4985" y1="28.0807" x2="13.5349" y2="28.0807" gradientUnits="userSpaceOnUse">
<stop stop-color="#FFE000"/>
<stop offset="0.41" stop-color="#FFBD00"/>
<stop offset="0.78" stop-color="#FFA500"/>
<stop offset="1" stop-color="#FF9C00"/>
</linearGradient>
<linearGradient id="paint2_linear_181_328" x1="34.8622" y1="31.31" x2="2.90636" y2="63.2518" gradientUnits="userSpaceOnUse">
<stop stop-color="#FF3A44"/>
<stop offset="1" stop-color="#C31162"/>
</linearGradient>
<linearGradient id="paint3_linear_181_328" x1="10.2495" y1="0.252688" x2="24.5145" y2="14.5177" gradientUnits="userSpaceOnUse">
<stop stop-color="#32A071"/>
<stop offset="0.07" stop-color="#2DA771"/>
<stop offset="0.48" stop-color="#15CF74"/>
<stop offset="0.8" stop-color="#06E775"/>
<stop offset="1" stop-color="#00F076"/>
</linearGradient>
<clipPath id="clip0_181_328">
<rect width="189.545" height="56.1614" fill="white"/>
</clipPath>
</defs>
</svg>
